<svg width="24" height="21" viewBox="0 0 24 21" fill="none" xmlns="http://www.w3.org/2000/svg">
<path d="M9.7409 2L6.8409 7.14M13.8211 2L16.7311 7.14M17.831 19.7H6.05096C5.73328 19.7002 5.42467 19.594 5.17449 19.3982C4.92432 19.2024 4.74702 18.9284 4.67096 18.62L2.02096 8.00996C1.9951 7.90667 1.99314 7.79884 2.01524 7.69468C2.03734 7.59052 2.08291 7.49277 2.14848 7.40888C2.21405 7.32499 2.2979 7.25716 2.39363 7.21056C2.48937 7.16396 2.59448 7.13981 2.70096 7.13996H21.181C21.2874 7.13981 21.3925 7.16396 21.4883 7.21056C21.584 7.25716 21.6679 7.32499 21.7334 7.40888C21.799 7.49277 21.8446 7.59052 21.8667 7.69468C21.8888 7.79884 21.8868 7.90667 21.861 8.00996L19.211 18.62C19.1349 18.9284 18.9576 19.2024 18.7074 19.3982C18.4572 19.594 18.1486 19.7002 17.831 19.7Z" stroke="#151515" stroke-width="2.5" stroke-linecap="round" stroke-linejoin="round"/>
</svg>
