<svg width="17" height="15" viewBox="0 0 17 15" fill="none" xmlns="http://www.w3.org/2000/svg">
<path fill-rule="evenodd" clip-rule="evenodd" d="M9.57105 3.23105C10.2076 2.59453 11.0709 2.23694 11.9711 2.23694C12.8712 2.23694 13.7345 2.59453 14.3711 3.23105C15.0076 3.86757 15.3652 4.73088 15.3652 5.63105C15.3652 6.53122 15.0076 7.39453 14.3711 8.03105L13.4977 8.90438L8.69772 13.7044L3.89772 8.90438L3.02439 8.03105C2.38787 7.39453 2.03027 6.53122 2.03027 5.63105C2.03027 4.73088 2.38787 3.86757 3.02439 3.23105C3.66091 2.59453 4.52421 2.23694 5.42439 2.23694C6.32456 2.23694 7.18787 2.59453 7.82439 3.23105L8.69772 4.10438L9.57105 3.23105Z" stroke="#151515" stroke-width="2.5" stroke-linecap="round" stroke-linejoin="round"/>
</svg>
