<svg width="14" height="16" viewBox="0 0 14 16" fill="none" xmlns="http://www.w3.org/2000/svg">
<path d="M12.6674 10.6666H8.66737M11.334 13.3333H8.66737M11.334 5.33331H8.66737M12.6674 2.66662H8.66737M2.66732 1.33331H5.33398C6.07036 1.33331 6.66732 1.93027 6.66732 2.66665V5.33331C6.66732 6.06969 6.07036 6.66665 5.33398 6.66665H2.66732C1.93094 6.66665 1.33398 6.06969 1.33398 5.33331V2.66665C1.33398 1.93027 1.93094 1.33331 2.66732 1.33331ZM2.66732 9.33331H5.33398C6.07036 9.33331 6.66732 9.93027 6.66732 10.6666V13.3333C6.66732 14.0697 6.07036 14.6666 5.33398 14.6666H2.66732C1.93094 14.6666 1.33398 14.0697 1.33398 13.3333V10.6666C1.33398 9.93027 1.93094 9.33331 2.66732 9.33331Z" stroke="#E6704B" stroke-width="2" stroke-linecap="round" stroke-linejoin="round"/>
</svg>
