<svg width="19" height="18" viewBox="0 0 19 18" fill="none" xmlns="http://www.w3.org/2000/svg">
<path fill-rule="evenodd" clip-rule="evenodd" d="M8.53432 1.62933C8.59188 1.44679 8.70614 1.28736 8.86049 1.17419C9.01484 1.06102 9.20126 1 9.39265 1C9.58405 1 9.77046 1.06102 9.92481 1.17419C10.0792 1.28736 10.1934 1.44679 10.251 1.62933L11.801 6.39599H16.801C16.9992 6.3885 17.1945 6.44611 17.3569 6.56002C17.5193 6.67394 17.64 6.83789 17.7004 7.02684C17.7609 7.21578 17.7578 7.41933 17.6917 7.60637C17.6256 7.79341 17.5001 7.95367 17.3343 8.06266L13.276 11.0043L14.826 15.7793C14.8873 15.9612 14.8888 16.1579 14.8304 16.3408C14.772 16.5236 14.6566 16.6829 14.5012 16.7956C14.3457 16.9082 14.1584 16.9682 13.9664 16.9667C13.7745 16.9653 13.5881 16.9026 13.4343 16.7877L9.36765 13.8127L5.30932 16.7627C5.15558 16.8776 4.96912 16.9403 4.77719 16.9417C4.58525 16.9432 4.39789 16.8832 4.24246 16.7706C4.08703 16.6579 3.97168 16.4986 3.91324 16.3158C3.85481 16.1329 3.85635 15.9362 3.91765 15.7543L5.46765 10.9793L1.40932 8.03766C1.24355 7.92867 1.11803 7.76841 1.05192 7.58137C0.98581 7.39433 0.982752 7.19078 1.04321 7.00184C1.10368 6.81289 1.22433 6.64894 1.38675 6.53502C1.54917 6.42111 1.74441 6.3635 1.94265 6.37099H6.94265L8.53432 1.62933Z" stroke="#EBEBEB" stroke-width="1.5" stroke-linecap="round" stroke-linejoin="round"/>
</svg>
