<svg width="14" height="14" viewBox="0 0 14 14" fill="none" xmlns="http://www.w3.org/2000/svg">
<path fill-rule="evenodd" clip-rule="evenodd" d="M6.38878 1.0977C6.43483 0.951671 6.52624 0.824126 6.64972 0.733589C6.7732 0.643052 6.92233 0.594238 7.07545 0.594238C7.22857 0.594238 7.3777 0.643052 7.50118 0.733589C7.62466 0.824126 7.71607 0.951671 7.76212 1.0977L9.00212 4.91103H13.0021C13.1607 4.90504 13.3169 4.95113 13.4468 5.04226C13.5768 5.13339 13.6733 5.26455 13.7217 5.41571C13.77 5.56687 13.7676 5.7297 13.7147 5.87934C13.6618 6.02897 13.5614 6.15718 13.4288 6.24437L10.1821 8.5977L11.4221 12.4177C11.4712 12.5632 11.4724 12.7206 11.4256 12.8668C11.3789 13.0131 11.2866 13.1406 11.1623 13.2307C11.0379 13.3208 10.888 13.3688 10.7345 13.3676C10.5809 13.3665 10.4318 13.3163 10.3088 13.2244L7.05545 10.8444L3.80878 13.2044C3.68579 13.2963 3.53663 13.3465 3.38308 13.3476C3.22953 13.3488 3.07964 13.3008 2.9553 13.2107C2.83095 13.1206 2.73867 12.9931 2.69192 12.8468C2.64517 12.7006 2.64641 12.5432 2.69545 12.3977L3.93545 8.5777L0.688783 6.22437C0.556172 6.13718 0.455751 6.00897 0.402863 5.85934C0.349976 5.7097 0.34753 5.54687 0.3959 5.39571C0.44427 5.24455 0.540795 5.11339 0.670728 5.02226C0.800661 4.93112 0.956856 4.88504 1.11545 4.89103H5.11545L6.38878 1.0977Z" fill="#FDBC15"/>
</svg>
