<svg width="18" height="16" viewBox="0 0 18 16" fill="none" xmlns="http://www.w3.org/2000/svg">
<path fill-rule="evenodd" clip-rule="evenodd" d="M7.8644 0.629327C7.92196 0.446791 8.03621 0.287359 8.19057 0.174188C8.34492 0.0610169 8.53133 0 8.72273 0C8.91413 0 9.10054 0.0610169 9.25489 0.174188C9.40925 0.287359 9.5235 0.446791 9.58106 0.629327L11.1311 5.39599H16.1311C16.3293 5.3885 16.5245 5.44611 16.687 5.56002C16.8494 5.67394 16.97 5.83789 17.0305 6.02684C17.091 6.21578 17.0879 6.41933 17.0218 6.60637C16.9557 6.79341 16.8302 6.95367 16.6644 7.06266L12.6061 10.0043L14.1561 14.7793C14.2174 14.9612 14.2189 15.1579 14.1605 15.3408C14.102 15.5236 13.9867 15.6829 13.8313 15.7956C13.6758 15.9082 13.4885 15.9682 13.2965 15.9667C13.1046 15.9653 12.9181 15.9026 12.7644 15.7877L8.69773 12.8127L4.6394 15.7627C4.48565 15.8776 4.2992 15.9403 4.10727 15.9417C3.91533 15.9432 3.72797 15.8832 3.57254 15.7706C3.41711 15.6579 3.30176 15.4986 3.24332 15.3158C3.18488 15.1329 3.18643 14.9362 3.24773 14.7543L4.79773 9.97933L0.739397 7.03766C0.573632 6.92867 0.448106 6.76841 0.381997 6.58137C0.315888 6.39433 0.312831 6.19078 0.373293 6.00184C0.433755 5.81289 0.554412 5.64894 0.716828 5.53502C0.879244 5.42111 1.07449 5.3635 1.27273 5.37099H6.27273L7.8644 0.629327Z" fill="#151515"/>
</svg>
