<svg width="17" height="15" viewBox="0 0 17 15" fill="none" xmlns="http://www.w3.org/2000/svg">
<path fill-rule="evenodd" clip-rule="evenodd" d="M9.54078 2.99411C10.1773 2.35759 11.0406 2 11.9408 2C12.841 2 13.7043 2.35759 14.3408 2.99411C14.9773 3.63063 15.3349 4.49394 15.3349 5.39411C15.3349 6.29429 14.9773 7.15759 14.3408 7.79411L13.4674 8.66744L8.66745 13.4674L3.86745 8.66744L2.99411 7.79411C2.35759 7.15759 2 6.29429 2 5.39411C2 4.49394 2.35759 3.63063 2.99411 2.99411C3.63063 2.35759 4.49394 2 5.39411 2C6.29429 2 7.15759 2.35759 7.79411 2.99411L8.66745 3.86745L9.54078 2.99411Z" stroke="#151515" stroke-width="2.5" stroke-linecap="round" stroke-linejoin="round"/>
</svg>
