<svg width="22" height="24" viewBox="0 0 22 24" fill="none" xmlns="http://www.w3.org/2000/svg">
<path d="M0.79453 21.6893C0.611907 22.3551 1.00357 23.0428 1.66933 23.2254C2.3351 23.4081 3.02285 23.0164 3.20547 22.3506L0.79453 21.6893ZM2.79 19.14L1.58466 18.8088L1.58453 18.8093L2.79 19.14ZM19.21 19.14L20.4155 18.8093L20.4153 18.8088L19.21 19.14ZM18.7945 22.3506C18.9772 23.0164 19.6649 23.4081 20.3307 23.2254C20.9964 23.0428 21.3881 22.3551 21.2055 21.6893L18.7945 22.3506ZM3.20547 22.3506L3.99547 19.4706L1.58453 18.8093L0.79453 21.6893L3.20547 22.3506ZM3.99534 19.4711C5.1695 15.1973 8.17642 13.265 11 13.265C13.8236 13.265 16.8305 15.1973 18.0047 19.4711L20.4153 18.8088C18.9795 13.5826 15.0814 10.765 11 10.765C6.91858 10.765 3.0205 13.5826 1.58466 18.8088L3.99534 19.4711ZM18.0045 19.4706L18.7945 22.3506L21.2055 21.6893L20.4155 18.8093L18.0045 19.4706ZM14.75 7C14.75 9.07107 13.0711 10.75 11 10.75V13.25C14.4518 13.25 17.25 10.4518 17.25 7H14.75ZM11 10.75C8.92893 10.75 7.25 9.07107 7.25 7H4.75C4.75 10.4518 7.54822 13.25 11 13.25V10.75ZM7.25 7C7.25 4.92893 8.92893 3.25 11 3.25V0.75C7.54822 0.75 4.75 3.54822 4.75 7H7.25ZM11 3.25C13.0711 3.25 14.75 4.92893 14.75 7H17.25C17.25 3.54822 14.4518 0.75 11 0.75V3.25Z" fill="#151515"/>
</svg>
