<svg width="17" height="16" viewBox="0 0 17 16" fill="none" xmlns="http://www.w3.org/2000/svg">
<path fill-rule="evenodd" clip-rule="evenodd" d="M7.53432 0.629327C7.59188 0.446791 7.70614 0.287359 7.86049 0.174188C8.01484 0.0610169 8.20126 0 8.39265 0C8.58405 0 8.77046 0.0610169 8.92481 0.174188C9.07917 0.287359 9.19342 0.446791 9.25099 0.629327L10.801 5.39599H15.801C15.9992 5.3885 16.1945 5.44611 16.3569 5.56002C16.5193 5.67394 16.64 5.83789 16.7004 6.02684C16.7609 6.21578 16.7578 6.41933 16.6917 6.60637C16.6256 6.79341 16.5001 6.95367 16.3343 7.06266L12.276 10.0043L13.826 14.7793C13.8873 14.9612 13.8888 15.1579 13.8304 15.3408C13.772 15.5236 13.6566 15.6829 13.5012 15.7956C13.3457 15.9082 13.1584 15.9682 12.9664 15.9667C12.7745 15.9653 12.5881 15.9026 12.4343 15.7877L8.36765 12.8127L4.30932 15.7627C4.15558 15.8776 3.96912 15.9403 3.77719 15.9417C3.58525 15.9432 3.39789 15.8832 3.24246 15.7706C3.08703 15.6579 2.97168 15.4986 2.91324 15.3158C2.85481 15.1329 2.85635 14.9362 2.91765 14.7543L4.46765 9.97933L0.409318 7.03766C0.243554 6.92867 0.118028 6.76841 0.0519188 6.58137C-0.0141905 6.39433 -0.0172475 6.19078 0.0432148 6.00184C0.103677 5.81289 0.224334 5.64894 0.38675 5.53502C0.549166 5.42111 0.74441 5.3635 0.942652 5.37099H5.94265L7.53432 0.629327Z" fill="#151515"/>
</svg>
